{"title":"The Hobbit:An Unexpected Journey(2012)MPEG-4[DaScubaDude]","uid":14738755,"size":1861125940,"categoryP":"video","categoryS":"movies","magnet":"?xt=urn:btih:065c185c8b3c1ecba157399e8a07919459ec67a4&amp;dn=The+Hobbit%3AAn+Unexpected+Journey%282012%29MPEG-4%5BDaScubaDude%5D&amp;tr=udp%3A%2F%2Ftracker.leechers-paradise.org%3A6969&amp;tr=udp%3A%2F%2Fzer0day.ch%3A1337&amp;tr=udp%3A%2F%2Fopen.demonii.com%3A1337&amp;tr=udp%3A%2F%2Ftracker.coppersurfer.tk%3A6969&amp;tr=udp%3A%2F%2Fexodus.desync.com%3A6969","seeders":1,"leechers":0,"uploader":"dascuba","files":1,"time":1464655313,"description":"The Hobbit: An Unexpected Journey (2012)\r\nPG-13 | 2h 49min | Adventure, Fantasy | 14 December 2012 (USA)\r\nA reluctant hobbit, Bilbo Baggins, sets out to the Lonely Mountain with a spirited group of dwarves to reclaim their mountain home - and the gold within it - from the dragon Smaug.\r\nDirector: Peter Jackson\r\nWriters: Fran Walsh (screenplay), Philippa Boyens (screenplay) | \r\nStars: Martin Freeman, Ian McKellen, Richard Armitage |\r\n\r\nGeneral\r\nComplete name                            : TheHobbitUnexpectedJourneyTHE_HOBBIT_UNEXPECTED_JOURNEY_Title1.mp4\r\nFormat                                   : MPEG-4\r\nFormat profile                           : Base Media\r\nCodec ID                                 : isom (isom/iso2/avc1/mp41)\r\nFile size                                : 1.73 GiB\r\nDuration                                 : 2h 49mn\r\nOverall bit rate                         : 1 464 Kbps\r\nMovie name                               : THE_HOBBIT_UNEXPECTED_JOURNEY\r\nGenre                                    : Fantasy\r\nWriting application                      : Lavf54.6.100\r\n\r\nVideo\r\nID                                       : 1\r\nFormat                                   : AVC\r\nFormat/Info                              : Advanced Video Codec\r\nFormat profile                           :   \r\nFormat settings, CABAC                   : No\r\nFormat settings, ReFrames                : 6 frames\r\nCodec ID                                 : avc1\r\nCodec ID/Info                            : Advanced Video Coding\r\nDuration                                 : 2h 49mn\r\nBit rate                                 : 1 194 Kbps\r\nWidth                                    : 720 pixels\r\nHeight                                   : 404 pixels\r\nDisplay aspect ratio                     : 16:9\r\nFrame rate mode                          : Constant\r\nFrame rate                               : 29.970 (30000/1001) fps\r\nColor space                              : YUV\r\nChroma subsampling                       : 4:2:0\r\nBit depth                                : 8 bits\r\nScan type                                : Progressive\r\nBits/(Pixel*Frame)                       : 0.137\r\nStream size                              : 1.41 GiB (82%)\r\n\r\nAudio\r\nID                                       : 2\r\nFormat                                   : AAC\r\nFormat/Info                              : Advanced Audio Codec\r\nFormat profile                           : LC\r\nCodec ID                                 : 40\r\nDuration                                 : 2h 49mn\r\nBit rate mode                            : Constant\r\nBit rate                                 : 265 Kbps\r\nChannel(s)                               : 2 channels\r\nChannel(s)_Original                      : 6 channels\r\nChannel positions                        : Front: L C R, Side: L R, LFE\r\nSampling rate                            : 44.1 KHz\r\nFrame rate                               : 43.066 fps (1024 spf)\r\nCompression mode                         : Lossy\r\nStream size                              : 320 MiB (18%)\r\nDefault                                  : Yes\r\nAlternate group                          : 1","torrent":{"xt":"urn:btih:065c185c8b3c1ecba157399e8a07919459ec67a4","amp;dn":"The+Hobbit%3AAn+Unexpected+Journey%282012%29MPEG-4%5BDaScubaDude%5D","amp;tr":["udp%3A%2F%2Ftracker.leechers-paradise.org%3A6969","udp%3A%2F%2Fzer0day.ch%3A1337","udp%3A%2F%2Fopen.demonii.com%3A1337","udp%3A%2F%2Ftracker.coppersurfer.tk%3A6969","udp%3A%2F%2Fexodus.desync.com%3A6969"],"infoHash":"065c185c8b3c1ecba157399e8a07919459ec67a4","infoHashBuffer":{"type":"Buffer","data":[6,92,24,92,139,60,30,203,161,87,57,158,138,7,145,148,89,236,103,164]},"announce":[],"urlList":[]}}